<svg xmlns="http://www.w3.org/2000/svg" height="533.33" width="800">
  <path style="fill:#000;fill-opacity:1;stroke:none;stroke-width:12;stroke-linecap:butt;stroke-linejoin:miter;stroke-miterlimit:4;stroke-opacity:1" d="M-.00390625-.00201291h800.00391v533.33203h-800.00391z"/>
  <g style="fill-opacity:1;fill:#ebab00">
    <path d="M133.33203 177.77533-.00390625 88.885355V533.33002H133.33203V177.77533zM400 355.55266 266.66797 266.6653v266.66472H400V355.55266zM666.66797 533.33002l-133.33594-88.89v88.89h133.33594zM133.33203 177.77533V-.00201291L266.66797 88.887959V266.67377l-133.33594-88.89844z" style="stroke-opacity:1;stroke-linejoin:miter;stroke-linecap:butt;stroke-width:1px;stroke:none;fill-rule:evenodd;fill-opacity:1;fill:#ebab00"/>
    <path d="M400 355.55163V177.77429l133.33594 88.88997v177.78581L400 355.55163zM666.66797 533.33002V355.55268l133.33594 88.88997L800 533.33002H666.66797z" style="stroke-opacity:1;stroke-linejoin:miter;stroke-linecap:butt;stroke-width:1px;stroke:none;fill-rule:evenodd;fill-opacity:1;fill:#ebab00"/>
    <path style="stroke-opacity:1;stroke-linejoin:miter;stroke-linecap:butt;stroke-width:1px;stroke:none;fill-rule:evenodd;fill-opacity:1;fill:#ebab00" d="m533.33203 266.66268 133.33594 88.88997V-.00201291H533.33203V266.66268zM266.66406 88.885347l133.33203 88.887363L400-.00201291H266.66797l-.00391 88.88735991z"/>
  </g>
  <path style="fill:#000;fill-opacity:1;fill-rule:evenodd;stroke:none;stroke-width:1px;stroke-linecap:butt;stroke-linejoin:miter;stroke-opacity:1" d="m515.03487 101.09036-.15204 213.97681c-.0218 30.67931-3.20128 35.19081-24.19895 48.18561L400 419.37419l-90.68388-56.12141c-20.99767-12.9948-24.17715-17.5063-24.19895-48.18561l-.15204-213.97681h230.06974z"/>
  <path style="fill:none;fill-rule:evenodd;stroke:#ebab00;stroke-width:8;stroke-linecap:butt;stroke-linejoin:miter;stroke-miterlimit:4;stroke-opacity:1" d="M495.0602 121.09929v193.99042c0 21.88127-.98691 22.46643-15.19498 31.26789L400 395.83165l-79.86522-49.47405c-14.20807-8.80146-15.19498-9.38662-15.19498-31.26789V121.09929h190.1204z"/>
  <path d="M396.46872 134.59932c-.6317-.00793-1.1187.31772-1.4375.75-.69915.30261-.95841.74759-1.5 1.3125-.11816.14793-.4375.78439-.4375 1.09375.09848 1.29119-.44613 2.69967.12501 4.03125.5171.51224 1.24418.91811 1.90624 1.21875-.96338 3.07237-.87684 7.25885-.53125 11.34375.19034 2.25006 1.11597 3.78048 2.25 4.5625-.01773.88358-.03845 1.76524-.09375 2.65625-.44512-.13302-.89861-.27325-1.34375-.40625-.15756-.3161-.05225-.76857.125-1.125-.38078-.03365-.47927.1958-.78125.34375.16409-.56494 1.2991-.74167 1.1875-1.125-.56457-.16815-.86951-.09021-1.375.125-.57769-.14124-.81488.50669-1.15625 1.03125-.48579-.21523-.87083-.16221-1.21875.1875.20351.54471.82985.64594 1.25.96875.06563.66578.47325 1.22664 1.03125 1.46875-.65647 1.49296.2997 2.85439 1.21875 3.5-.7434.3046-1.28354 1.6815-1.3125 2.3125h-.21875v2.28125h-1.1875v5.34375h-1.3125c-.7293-.00002-1.3125.58319-1.3125 1.3125 0 .72928.5832 1.31251 1.3125 1.3125h-.59375v8.40625h.3125c-.60095.12233-1.03125.64312-1.03125 1.28125 0 .72927.5832 1.3125 1.3125 1.3125h.21875l-.03125 1.4375c-.21331-.32432-.4128-.64599-.59375-.96875l-.0625 3.40625c.19756.30161.41398.58586.625.875l-.21875 12.375c-.21485.27342-.42263.55579-.625.84375l-.0625 3.375c.00788-.01175.02333-.01952.03125-.03125l-.0625 3.03125c.19694.27515.41665.5484.625.8125l-.21875 12.5625c-.21966.29115-.45181.59965-.65625.90625l-.03125 3.03125c.19505-.31702.42944-.62426.65625-.9375l-.03124.9375h-1.09376v1.75h.34375v9.40625h-.71875c-.51784-.00002-.93751.41964-.9375.9375 0 .38835.22677.73348.5625.875h-.5625v1.53125c-.58922.0569-.89152.61872-.78125 1.15625-.24707 1.18715-1.07911 2.53235-2.03125 2.5625-.6352-.38499-.98592-.67923-1-1.34375-.01177-.55564.13354-1.09234.78125-1.53125.18748-.19178.0355-.19955-.25-.21875-.14702-.00428-.40342.01561-.53125.0625.17044-.15768.20312-.28622.15625-.4375-.14275-.08951-.30043-.13137-.46875-.125-.12585-.10908-.25557-.17717-.375-.1875-.0398-.00346-.0544.02754-.09374.03125-.26241.02466-.51761.18217-.78126.1875-.60508.20239-.83668 1.0838-1.25 1.625.14701.22796.18396.09729.34375.03125-.04901.3004-.21023.60582-.125.90625-.06605.28335-.29971.57952-.21875.84375-.23011.19813-.23829.66409-.0625.875.15448.16829.19814.33096.09376.53125-.24717.39202-.09873.85797.03124.96875.09375.22796.02984.56677-.09375.75-.33237 1.10363.09943 2.01706.6875 2.75-.09162.48789.18107 2.4782.3125 3.0625-.28291.1225-.64762.2629-.8125.53125h-.3125v2.375h-2.31249v4.5625h-3.68751v1.375h1.4375c1.04629.88108 2.13013 2.02551 2.3125 3.28125h-1.25v1.125h1.25l-.8125 11.875h-3.34375v.9375h.40625v1.8125h.90625v3.15625l-1.28125 17.84375h-37.625c.17962-.27639-.29756-.81655-.625-.8125-.05779-.32708-.21574-.44981-.5-.46875-.28424.0189-.41095.14169-.46875.46875-.43656-.00542-1.14344.94981-.21874.96875l-.06251.96875h-.125c-.15427-.00004-.28125.09793-.28125.21875 0 .12081.127.21875.28125.21875h.125l-.25 4.875c-.12145.0235-.21875.08491-.21875.1875 0 .10256.09732.16399.21875.1875l-.03125.34375c-.05146-.01955-.09502-.0625-.15624-.0625-.21609 0-.37501.14323-.37501.3125v.96875c0 .16923.15891.3125.37501.3125.0252-.00002.03864-.0277.06249-.03125v.3125c-.1162.02619-.21875.08782-.21875.1875 0 .09061.08749.15448.1875.1875l-.1875 3.84375h-.03125c-.15424-.00001-.25.09792-.25.21875 0 .09057.06425.15429.15625.1875h-.125v2.34375h-.25v10.25h3.6875v-.0625h122.5v.0625h3.6875v-10.25h-.25v-2.34375h-.15625c.10081-.03323.18749-.09691.18751-.1875.00002-.12085-.12703-.21874-.28126-.21875l-.1875-3.84375c.10001-.03304.18749-.09687.1875-.1875.00003-.0997-.10254-.16129-.21874-.1875v-.3125c.01576.00148.01497.03125.03124.03125.21612-.00002.40625-.14325.40625-.3125v-.96875c.00003-.16929-.19017-.31248-.40625-.3125-.05178-.00002-.07986.01701-.125.03125v-.3125c.10713-.03036.1875-.0929.1875-.1875.00003-.10261-.0973-.16398-.21875-.1875l-.25-4.875h.125c.15428-.00002.28125-.09792.28125-.21875.00003-.12084-.12701-.21877-.28125-.21875h-.125l-.0625-.96875c.92471-.01896.21781-.97415-.21875-.96875-.05777-.32708-.1845-.44983-.46875-.46875-.28423.01892-.4422.14169-.5.46875-.3274-.00406-.80462.53611-.625.8125h-37.40625l-1.28125-17.84375v-3.15625h.90625v-1.8125h.40625v-.9375h-3.5625l-.81249-11.875h1.24999v-1.125h-1.24999c.18235-1.25577 1.2662-2.40014 2.31249-3.28125h1.4375v-1.375h-3.6875v-4.5625h-2.3125v-2.375h-.3125c-.1649-.26837-.5296-.40873-.8125-.53125.13141-.58432.40412-2.57459.3125-3.0625.58805-.73296 1.01987-1.64635.6875-2.75-.12361-.18325-.1875-.52202-.09375-.75.12995-.1108.2784-.57671.03125-.96875-.1044-.20031-.06071-.36294.09375-.53125.17576-.21093.13635-.67685-.09375-.875.08093-.26425-.12146-.56038-.1875-.84375.08521-.30045-.10726-.60583-.15625-.90625h.03125c.15979.06602.19673.19673.34375-.03125-.41333-.54122-.64492-1.42259-1.25-1.625-.26366-.00535-.51884-.16282-.78125-.1875-.03935-.00373-.0852-.03469-.125-.03125-.11942.01031-.21791.07844-.34375.1875-.16833-.00639-.32601.03551-.46875.125-.04687.15126-.0142.27984.15625.4375-.12784-.04691-.4155-.06676-.5625-.0625-.2855.01918-.40625.02699-.21874.21875.64768.43889.793.97563.78124 1.53125-.0141.6645-.36482.95878-1 1.34375-.95215-.03017-1.78417-1.37533-2.03125-2.5625.11025-.53755-.19205-1.09933-.78125-1.15625v-1.53125h-.5625c.3357-.14155.5625-.48664.5625-.875-.00001-.51786-.41966-.93749-.9375-.9375h-.71875v-9.40625h.34375v-1.75h-.5l-.0625-3.125c-.18926-.28019-.39172-.54537-.59374-.8125l-.18751-12.53125c.19124-.24174.34956-.49892.53125-.75l-.0625-3.1875c.0282.0422.06603.08276.09375.125l-.0625-3.40625c-.20238-.28798-.41017-.57031-.625-.84375l-.21875-12.40625c.20295-.27913.43459-.55304.625-.84375l-.09374-3.5625c-.17243.3038-.36214.59902-.56251.90625l-.03125-1.21875h.21875c.72928-.00002 1.3125-.5832 1.3125-1.3125-.00001-.63816-.46155-1.1589-1.0625-1.28125h.34375v-8.40625h-.59375c.72928-.00002 1.3125-.58321 1.3125-1.3125-.00001-.72932-.58322-1.31249-1.3125-1.3125h-1.3125v-5.34375h-1.1875v-2.28125h-.03125c-.09325-1.4648-.034-3.02188.09375-4.34375.13131-1.47283 1.34626-2.20486 1.4375-3.59375.04661-.70939-.62927-1.26502-1.84375-1.40625.35449-.96171.45248-1.90421.53125-2.90625.45295-.30266.8356-.54902.875-1.09375.01311-.61874-.5478-.86824-.59375-1.40625-.19692-2.17896.05615-4.40373-.59374-6.5625.53174-.64562-.9113-2.89474-1.71876-3.5.02625-.53132-.4701-1.09097-1.09375-1.21875-.46487.07197-.59417-.33015-.75-.78125.02454-.02825.04501-.06068.06251-.09375.19015-.25593.49211-.39975.65624-1.25.53553.16888.68327-1.2785.25-1.5-.08411-.30822-.26704-.58692-.5-.78125l.125-1.1875-.46875.40625-.28125-.65625-.40625.5625-.40625-.5625-.40625.625-.53125-.34375.0625 1.1875c-.2257.17218-.45243.3567-.625.625-.26258.21433-.40192 1.57137.25 1.5625.14442.67875.20014.69983.71875 1.25.02314.03695.06327.06209.09375.09375-.17612.51066-.61944.65003-1.21875.4375-.19695-.22195-.69172-.25713-1.125-.15625-.53174-.58511-1.42968-1.08344-2.375-1.40625-.21007.1614-.27626.30932-.25.53125-.49236-.30264-.90917-.5534-1.5-.59375.19038-1.12984-.16466-1.93783-.25-2.90625.03281-.34974.19618-.64042.40625-.6875.05338-.00197.10508-.02503.15625-.03125.21132 1.41117 1.1244 1.86493 1.96875 1.875.59853.00723 1.77075-.81472 1.78125-2.03125.00678-.78576-.59759-2.39076-1.875-2.40625zm0 .6875c.76302.0107 1.0978 1.11166 1.09375 1.65625-.00627.84317-.67376 1.41128-1.03125 1.40625-.52817-.00735-1.13119-.34508-1.21875-1.4375.15638-.1038.29093-.22535.40626-.375-.02513-.20278-.09322-.40633-.18751-.59375.18668-.35917.5071-.66251.9375-.65625zm-4.90625 75.25-.03125 1.1875c-.13475-.20256-.2518-.42208-.375-.625.13114-.18616.26648-.37716.40625-.5625zm16.875.03125c.10693.14435.21086.29254.3125.4375-.08975.1544-.18491.3146-.28125.46875l-.03125-.90625zm.3125 20.59375c.13413.19694.27265.39331.40625.59375h-.40625v-.59375z" style="fill:#fff;fill-opacity:1;stroke:#fff;stroke-width:2;stroke-linecap:butt;stroke-linejoin:miter;stroke-miterlimit:4;stroke-opacity:1"/>
  <path style="fill:#fff;fill-opacity:1;fill-rule:evenodd;stroke:#000;stroke-width:1;stroke-linecap:butt;stroke-linejoin:miter;stroke-miterlimit:4;stroke-opacity:1;stroke-dasharray:none" d="M373.90454 320.50569v-3.289h1.0599l1.97919-27.54253v-3.1612h-.90163v-1.80876h-.42333v-.92361h48.98038v.92361h-.42333v1.80876h-.90163v3.1612l1.97919 27.54253h1.0599v3.289h-52.40864z"/>
  <path d="m391.21564 232.28315.66515-42.34246h16.23845l.66515 42.34246h-17.56875z" style="stroke-dasharray:none;stroke-opacity:1;stroke-miterlimit:4;stroke-linejoin:miter;stroke-linecap:butt;stroke-width:1;stroke:#000;fill-rule:evenodd;fill-opacity:1;fill:#fff"/>
  <path style="stroke-dasharray:none;stroke-opacity:1;stroke-miterlimit:4;stroke-linejoin:miter;stroke-linecap:round;stroke-width:1;stroke:#000;fill-opacity:1;fill:#fff" d="M388.81573 244.74646h22.368578v16.055305H388.81573z"/>
  <path style="stroke-dasharray:none;stroke-opacity:1;stroke-miterlimit:4;stroke-linejoin:miter;stroke-linecap:round;stroke-width:1;stroke:#000;fill-opacity:1;fill:#fff" d="M382.03952 259.39777h35.920986v2.2635517H382.03952z"/>
  <path d="M389.00622 254.70615h21.9876" style="fill:none;fill-opacity:.75;fill-rule:evenodd;stroke:#000;stroke-width:.5;stroke-linecap:butt;stroke-linejoin:miter;stroke-miterlimit:4;stroke-opacity:1;stroke-dasharray:none"/>
  <path style="stroke-dasharray:none;stroke-opacity:1;stroke-miterlimit:4;stroke-linejoin:miter;stroke-linecap:round;stroke-width:1;stroke:#000;fill-opacity:1;fill:#fff" d="M379.71646 261.56171h40.567104v4.491457H379.71646z"/>
  <path d="m376.63466 318.31734 3.18868-47.06058c.08246-1.83258-1.95169-3.52771-3.27115-4.50814h46.89565c-1.31946.98043-3.35361 2.67556-3.27115 4.50814l3.18868 47.06058h-46.73071z" style="fill:#fff;fill-opacity:1;fill-rule:evenodd;stroke:#000;stroke-width:1;stroke-linecap:butt;stroke-linejoin:round;stroke-miterlimit:4;stroke-opacity:1;stroke-dasharray:none"/>
  <path style="stroke-dasharray:none;stroke-opacity:1;stroke-miterlimit:4;stroke-linejoin:miter;stroke-linecap:butt;stroke-width:.49;stroke:#000;fill-opacity:1;fill:none" d="M391.33093 284.25385h17.338175v2.1931484H391.33093z"/>
  <path style="stroke-dasharray:none;stroke-opacity:1;stroke-miterlimit:4;stroke-linejoin:miter;stroke-linecap:butt;stroke-width:1;stroke:#000;fill-opacity:1;fill:#fff" d="M376.03818 266.12451h47.923691v1.3583964H376.03818z"/>
  <path style="fill:#fff;fill-opacity:1;stroke:#000;stroke-width:1;stroke-linecap:butt;stroke-linejoin:miter;stroke-miterlimit:4;stroke-opacity:1;stroke-dasharray:none" d="M378.54364 270.76422h42.912762v1.1502316H378.54364z"/>
  <path style="stroke-dasharray:none;stroke-opacity:1;stroke-miterlimit:4;stroke-linejoin:miter;stroke-linecap:butt;stroke-width:.49;stroke:#000;fill-opacity:1;fill:none" d="M392.16574 286.4433h15.668533v3.2281411H392.16574z"/>
  <path style="stroke-dasharray:none;stroke-opacity:1;stroke-miterlimit:4;stroke-linejoin:miter;stroke-linecap:butt;stroke-width:.49;stroke:#000;fill-rule:evenodd;fill-opacity:.75;fill:none" d="m409.9509 317.10784-1.97918-27.43368H392.0283l-1.97918 27.43368"/>
  <path style="fill:#0c0000;fill-opacity:1;fill-rule:evenodd;stroke:#000;stroke-width:.49;stroke-linecap:butt;stroke-linejoin:miter;stroke-miterlimit:4;stroke-opacity:1;stroke-dasharray:none" d="m407.34629 317.14671-1.86256-24.75131h-10.96744l-1.86256 24.75131h14.69256z"/>
  <path style="stroke-dasharray:none;stroke-opacity:1;stroke-miterlimit:4;stroke-linejoin:miter;stroke-linecap:butt;stroke-width:.49;stroke:#000;fill-rule:evenodd;fill-opacity:.75;fill:none" d="m408.66803 317.14671-1.94031-26.15081H393.2723l-1.94031 26.15081M377.07628 314.80419h13.12339m-12.96789-2.38251h13.12338m-12.98732-2.38252h13.1817m-13.00676-2.38251h13.1817m-13.0262-2.38252h13.18169m-12.98732-2.38251h13.12339m-13.00676-2.38252h13.22057m-13.0262-2.38251h13.1817m-13.0262-2.38251h13.20113m-13.0262-2.38252h13.24002m-13.10395-2.38251h13.24001m-13.08451-2.38252h13.2653m-13.03772-2.38251h12.30656m-12.1966-2.38252h11.97101m-11.77859-2.38251h41.28881m-41.15137-2.38251h41.01392m-40.8215-2.38252h40.62908m-40.46415-2.38251h40.29922m2.77412 40.50274h-13.12338m12.96788-2.38251h-13.12338m12.98732-2.38252h-13.1817m13.00676-2.38251h-13.1817m13.02621-2.38252h-13.1817m12.98732-2.38251h-13.12339m13.00677-2.38252h-13.22058m13.0262-2.38251h-13.1817m13.0262-2.38251h-13.20113m13.0262-2.38252h-13.24001m13.10395-2.38251h-13.24002m13.08451-2.38252h-13.2653m13.03772-2.38251H408.7172m12.11964-2.38252h-11.97102"/>
  <path style="stroke-dasharray:none;stroke-opacity:1;stroke-miterlimit:4;stroke-linejoin:miter;stroke-linecap:butt;stroke-width:.49;stroke:#000;fill-opacity:1;fill:#fff" d="M390.90887 283.81519h18.182304v.93208808H390.90887zM375.755 317.21777h48.48999v3.2986388H375.755z"/>
  <path style="fill:none;fill-opacity:.75;fill-rule:evenodd;stroke:#000;stroke-width:.49000001;stroke-linecap:butt;stroke-linejoin:miter;stroke-miterlimit:4;stroke-opacity:1" d="M387.87697 272.389v1.84151m8.19425-1.80303v1.76454m.23377 2.96901v1.83359m-.03848 3.01541v1.55738m-8.65893-6.40638v1.91056m-.19242 2.89996v1.63435m-3.92538-8.7924v1.91056m8.31257-1.91056v1.91056m-8.58196 2.7845v1.87603m8.42803-1.79906v1.63435m-4.42568 5.50446v1.94508m-4.19477-4.40807v1.94508m-.26938 2.8462v1.94508m4.23325.44093v1.94508m-4.42567.44094v1.94508m4.23325.44094v1.94508m-4.50264.40245v1.94508m4.31022.44093v1.94509m-4.54113.5179v1.87603m4.34871.39453v1.87603m-4.57961.54847v2.46298m4.3487 0v1.87603m-4.54113.43302v1.87603m4.38719.50998v1.87604m5.77262-42.32285v1.91056m20.32071-4.33506v1.84151m-8.09067-1.80303v1.76454m-.33735 2.96901v1.83359m.03849 3.01541v1.55738m8.65892-6.40638v1.91056m.19242 2.89996v1.63435m3.92538-8.7924v1.91056m-8.31257-1.91056v1.91056m8.58196 2.7845v1.94509m-8.42802-1.86812v1.63435m4.42567 5.50446v1.84151m4.19477-4.3045v1.84151m.26939 2.94977v1.84151m-4.23326.5445v1.84151m4.42568.54451v1.84151m-4.23326.54451v1.84151m4.50265.50602v1.84151m-4.31023.5445v1.84152m4.54113.62147v1.84151m-4.3487.42905v1.84151m4.57961.58299v1.84151m-4.34871.62147v1.84151m4.54113.46754v1.84151m-4.38719.5445v1.84152m-5.77262-42.28833v1.91056m-8.19767-1.8336v1.71815m0 3.0154v1.79511"/>
  <path d="M393.46905 259.4275v2.09536m13.06194-2.09536v2.09536" style="fill:none;fill-opacity:.75;fill-rule:evenodd;stroke:#000;stroke-width:.49;stroke-linecap:butt;stroke-linejoin:miter;stroke-miterlimit:4;stroke-opacity:1;stroke-dasharray:none"/>
  <path d="M389.75045 242.81485h20.49914c.51783 0 .93471.41688.93471.93472 0 .51783-.41688.93472-.93471.93472h-20.49914c-.51784 0-.93472-.41689-.93472-.93472 0-.51784.41688-.93472.93472-.93472z" style="fill:#fff;fill-opacity:1;stroke:#000;stroke-width:1;stroke-linecap:round;stroke-linejoin:miter;stroke-miterlimit:4;stroke-opacity:1;stroke-dasharray:none"/>
  <rect ry="0" rx=".93471867" y="233.40674" x="390.4649" height="9.3867035" width="19.070248" style="stroke-dasharray:none;stroke-opacity:1;stroke-miterlimit:4;stroke-linejoin:miter;stroke-linecap:round;stroke-width:1;stroke:#000;fill-opacity:1;fill:#fff"/>
  <rect ry="0" rx=".93471897" y="234.28937" x="391.66888" height="7.621356" width="16.662247" style="fill:#fff;fill-opacity:1;stroke:#000;stroke-width:.5;stroke-linecap:round;stroke-linejoin:miter;stroke-miterlimit:4;stroke-opacity:1;stroke-dasharray:none"/>
  <path d="M392.57258 234.40557v7.38896m14.85487-7.38896v7.38896M395.578 232.14709l.57146-42.17919m1.57832 42.26083.32655-42.23362m-4.10907 42.12477.59867-42.23362m-1.74159 42.26083.78916-42.17919m-1.65996 42.26083.70753-42.26083m11.78296 42.17919-.57146-42.17919m-1.57832 42.26083-.32655-42.23362m4.10907 42.12477-.59867-42.23362m1.74159 42.26083-.78916-42.17919m1.65996 42.26083-.70753-42.26083m-7.36095.08164v42.12476" style="fill:none;fill-opacity:.75;fill-rule:evenodd;stroke:#000;stroke-width:.5;stroke-linecap:butt;stroke-linejoin:miter;stroke-miterlimit:4;stroke-opacity:1;stroke-dasharray:none"/>
  <path d="M409.00851 210.50435c-2.05773 3.80338-6.3322 7.63592-9.0073 9.54854-2.61365-1.86869-6.91878-5.63917-9.06172-9.36542l-.06803 3.66246c2.16151 3.02018 5.07384 5.37602 7.33374 7.01098-2.32531 1.64412-5.40898 4.0128-7.56505 7.24643l-.05442 3.03461c2.26921-3.68832 6.87904-7.18727 9.41548-8.97302 2.58038 1.81668 7.16227 5.53022 9.36106 9.3131l-.05442-3.46625c-2.15344-3.1881-5.20654-5.52576-7.51062-7.15487 2.23838-1.61939 5.12393-3.94089 7.27931-6.91942l-.06803-3.93714z" style="fill:#fff;fill-opacity:1;fill-rule:evenodd;stroke:#000;stroke-width:.5;stroke-linecap:butt;stroke-linejoin:miter;stroke-miterlimit:4;stroke-opacity:1;stroke-dasharray:none"/>
  <path style="stroke-dasharray:none;stroke-opacity:1;stroke-miterlimit:4;stroke-linejoin:miter;stroke-linecap:round;stroke-width:1;stroke:#000;fill-opacity:1;fill:#fff" d="M390.13837 231.65985h19.723261v1.7366453H390.13837z"/>
  <path d="M408.73639 190.29545c-2.05174 3.61567-6.24576 7.57545-8.73518 9.4439-2.51167-1.88515-6.72705-5.68093-8.74878-9.28694l-.05442 3.41393c2.01336 3.07389 4.78864 5.50344 7.0344 7.20719-2.13857 1.54998-5.09746 3.7949-7.26571 6.88018l-.05442 3.37469c2.45678-3.65369 6.79595-7.26097 9.08893-8.92069 2.32226 1.68091 6.67604 5.28273 9.08894 8.95993l-.05443-3.41393c-2.16824-3.08528-5.12713-5.3302-7.2657-6.88018 2.24575-1.70375 5.02103-4.1333 7.0344-7.20719l-.06803-3.57089z" style="fill:#fff;fill-opacity:1;fill-rule:evenodd;stroke:#000;stroke-width:.5;stroke-linecap:butt;stroke-linejoin:miter;stroke-miterlimit:4;stroke-opacity:1;stroke-dasharray:none"/>
  <path d="m399.48418 202.81214 2.28584-1.74159M399.40254 223.11258l2.72124-1.9865M397.87865 221.60229l2.58517-1.87765M398.13716 201.16579l2.09536-1.59192" style="fill:none;fill-opacity:.75;fill-rule:evenodd;stroke:#000;stroke-width:.5;stroke-linecap:butt;stroke-linejoin:miter;stroke-miterlimit:4;stroke-opacity:1;stroke-dasharray:none"/>
  <path d="M391.65692 187.36983h16.68619c.7293 0 1.31642.58712 1.31642 1.31642 0 .72929-.58712 1.31642-1.31642 1.31642h-16.68619c-.7293 0-1.31642-.58713-1.31642-1.31642 0-.7293.58712-1.31642 1.31642-1.31642z" style="stroke-dasharray:none;stroke-opacity:1;stroke-miterlimit:4;stroke-linejoin:miter;stroke-linecap:round;stroke-width:1;stroke:#000;fill-opacity:1;fill:#fff"/>
  <path d="M401.93077 187.85286c.45345-.02004.90689.08018 1.23667.40889-.20886.30066-.42596.28863-.68429.43295.25833.15233.50016.1363.68429.45699-.36276.28062-.75849.39286-1.1872.33674m2.90051-1.63557c.38561-.02004.77122.08018 1.05166.40889-.17761.30066-.36223.28863-.58191.43295.21968.15233.42533.1363.58191.45699-.30848.28062-.64501.39286-1.00959.33674m2.14404-1.63557c.23592-.02004.47184.08018.64342.40889-.10867.30066-.22162.28863-.35603.43295.13441.15233.26023.1363.35603.45699-.18874.28062-.39463.39286-.61768.33674m1.18651-1.63557c.23592-.02004.47184.08018.64341.40889-.10866.30066-.22161.28863-.35602.43295.13441.15233.26023.1363.35602.45699-.18873.28062-.39462.39286-.61767.33674m-10.23559-1.63557c-.45345-.02004-.90689.08018-1.23667.40889.20886.30066.42596.28863.68429.43295-.25833.15233-.50016.1363-.68429.45699.36276.28062.75849.39286 1.1872.33674m-2.90051-1.63557c-.38561-.02004-.77122.08018-1.05166.40889.17761.30066.36223.28863.58191.43295-.21968.15233-.42533.1363-.58191.45699.30848.28062.64501.39286 1.00959.33674m-2.14404-1.63557c-.23592-.02004-.47184.08018-.64342.40889.10867.30066.22162.28863.35603.43295-.13441.15233-.26023.1363-.35603.45699.18874.28062.39463.39286.61768.33674m-1.18651-1.63557c-.23592-.02004-.47184.08018-.64341.40889.10866.30066.22161.28863.35602.43295-.13441.15233-.26023.1363-.35602.45699.18873.28062.39462.39286.61767.33674" style="fill:none;fill-opacity:.75;fill-rule:evenodd;stroke:#000;stroke-width:.5;stroke-linecap:butt;stroke-linejoin:miter;stroke-miterlimit:4;stroke-opacity:1;stroke-dasharray:none"/>
  <path d="M391.65692 176.36337h16.68619c.7293 0 1.31642.58712 1.31642 1.31642s-.58712 1.31642-1.31642 1.31642h-16.68619c-.7293 0-1.31642-.58712-1.31642-1.31642s.58712-1.31642 1.31642-1.31642z" style="stroke-dasharray:none;stroke-opacity:1;stroke-miterlimit:4;stroke-linejoin:miter;stroke-linecap:round;stroke-width:1;stroke:#000;fill-opacity:1;fill:#fff"/>
  <path d="M401.93077 176.8464c.45345-.02004.90689.08018 1.23667.40889-.20886.30066-.42596.28863-.68429.43295.25833.15233.50016.1363.68429.45699-.36276.28062-.75849.39286-1.1872.33674m2.90051-1.63557c.38561-.02004.77122.08018 1.05166.40889-.17761.30066-.36223.28863-.58191.43295.21968.15233.42533.1363.58191.45699-.30848.28062-.64501.39286-1.00959.33674m2.14404-1.63557c.23592-.02004.47184.08018.64342.40889-.10867.30066-.22162.28863-.35603.43295.13441.15233.26023.1363.35603.45699-.18874.28062-.39463.39286-.61768.33674m1.18651-1.63557c.23592-.02004.47184.08018.64341.40889-.10866.30066-.22161.28863-.35602.43295.13441.15233.26023.1363.35602.45699-.18873.28062-.39462.39286-.61767.33674m-10.23559-1.63557c-.45345-.02004-.90689.08018-1.23667.40889.20886.30066.42596.28863.68429.43295-.25833.15233-.50016.1363-.68429.45699.36276.28062.75849.39286 1.1872.33674m-2.90051-1.63557c-.38561-.02004-.77122.08018-1.05166.40889.17761.30066.36223.28863.58191.43295-.21968.15233-.42533.1363-.58191.45699.30848.28062.64501.39286 1.00959.33674m-2.14404-1.63557c-.23592-.02004-.47184.08018-.64342.40889.10867.30066.22162.28863.35603.43295-.13441.15233-.26023.1363-.35603.45699.18874.28062.39463.39286.61768.33674m-1.18651-1.63557c-.23592-.02004-.47184.08018-.64341.40889.10866.30066.22161.28863.35602.43295-.13441.15233-.26023.1363-.35602.45699.18873.28062.39462.39286.61767.33674" style="fill:none;fill-opacity:.75;fill-rule:evenodd;stroke:#000;stroke-width:.5;stroke-linecap:butt;stroke-linejoin:miter;stroke-miterlimit:4;stroke-opacity:1;stroke-dasharray:none"/>
  <rect ry="0" rx=".93471897" y="178.99323" x="391.05246" height="8.3413057" width="17.895115" style="stroke-dasharray:none;stroke-opacity:1;stroke-miterlimit:4;stroke-linejoin:miter;stroke-linecap:round;stroke-width:1;stroke:#000;fill-opacity:1;fill:#fff"/>
  <rect rx="0" y="171.02213" x="392.9574" height="5.3108082" width="14.085188" style="stroke-dasharray:none;stroke-opacity:1;stroke-miterlimit:4;stroke-linejoin:miter;stroke-linecap:round;stroke-width:1;stroke:#000;fill-opacity:1;fill:#fff"/>
  <path style="stroke-dasharray:none;stroke-opacity:1;stroke-miterlimit:4;stroke-linejoin:miter;stroke-linecap:round;stroke-width:1;stroke:#000;fill-opacity:1;fill:#fff" d="M394.15045 168.75156h11.699172v2.232079H394.15045z"/>
  <path style="fill:#fff;fill-opacity:1;stroke:#000;stroke-width:1;stroke-linecap:round;stroke-linejoin:miter;stroke-miterlimit:4;stroke-opacity:1;stroke-dasharray:none" d="M370.28848 319.79974h59.423065v7.4701209H370.28848z"/>
  <path style="fill:#fff;fill-opacity:1;stroke:#000;stroke-width:1;stroke-linecap:round;stroke-linejoin:miter;stroke-miterlimit:4;stroke-opacity:1;stroke-dasharray:none" d="M388.30084 324.78986h23.398344v2.470237H388.30084z"/>
  <path style="stroke-dasharray:none;stroke-opacity:1;stroke-miterlimit:4;stroke-linejoin:miter;stroke-linecap:round;stroke-width:.49;stroke:#000;fill-opacity:1;fill:#fff" d="M388.30084 322.27979h23.398344v2.470237H388.30084z"/>
  <path style="stroke-dasharray:none;stroke-opacity:1;stroke-miterlimit:4;stroke-linejoin:miter;stroke-linecap:round;stroke-width:.49;stroke:#000;fill-opacity:1;fill:#fff" d="M388.30084 319.80957h23.398344v2.470237H388.30084z"/>
  <path style="stroke-opacity:1;stroke-miterlimit:4;stroke-linejoin:miter;stroke-linecap:butt;stroke-width:.92;stroke:none;fill-rule:evenodd;fill-opacity:1;fill:#000;stroke-dasharray:none" d="M459.99704 323.1029v-14.30231l-.23008-.54834.41833-1.11951.41833 1.11951-.23008.54834v14.30231h-.3765z"/>
  <path style="stroke-dasharray:none;stroke-opacity:1;stroke-miterlimit:4;stroke-linejoin:miter;stroke-linecap:round;stroke-width:1;stroke:#000;fill-opacity:1;fill:#fff" d="M462.43417 323.93308H337.99165v9.70796h124.44252v-9.70796z"/>
  <path style="fill:none;fill-opacity:.75;fill-rule:evenodd;stroke:#000;stroke-width:.5;stroke-linecap:butt;stroke-linejoin:miter;stroke-miterlimit:4;stroke-opacity:1;stroke-dasharray:none" d="M338.42762 325.54754h124.69871"/>
  <path d="M462.92795 321.39009v.4483H337.55502v-.4483h125.37293zm0-12.66726v.44831H337.55502v-.44831h125.37293z" style="fill:#000;fill-opacity:1;fill-rule:evenodd;stroke:none;stroke-width:4.3233838;stroke-linecap:butt;stroke-linejoin:miter;stroke-miterlimit:4;stroke-opacity:1"/>
  <path d="M423.99691 323.1029v-14.30231l-.23008-.54834.41832-1.11951.41833 1.11951-.23008.54834v14.30231h-.37649zm1.89474 0v-14.30231l-.23008-.54834.41833-1.11951.41833 1.11951-.23009.54834v14.30231h-.37649zm1.89474 0v-14.30231l-.23008-.54834.41833-1.11951.41833 1.11951-.23008.54834v14.30231h-.3765zm1.89475 0v-14.30231l-.23008-.54834.41833-1.11951.41833 1.11951-.23009.54834v14.30231h-.37649zm1.89474 0v-14.30231l-.23008-.54834.41833-1.11951.41833 1.11951-.23008.54834v14.30231h-.3765zm1.89475 0v-14.30231l-.23008-.54834.41832-1.11951.41833 1.11951-.23008.54834v14.30231h-.37649zm1.89474 0v-14.30231l-.23008-.54834.41833-1.11951.41833 1.11951-.23009.54834v14.30231h-.37649zm1.89474 0v-14.30231l-.23008-.54834.41833-1.11951.41833 1.11951-.23008.54834v14.30231h-.3765zm1.89475 0v-14.30231l-.23008-.54834.41833-1.11951.41833 1.11951-.23009.54834v14.30231h-.37649zm1.89474 0v-14.30231l-.23008-.54834.41833-1.11951.41833 1.11951-.23008.54834v14.30231h-.3765zm1.89475 0v-14.30231l-.23008-.54834.41832-1.11951.41833 1.11951-.23008.54834v14.30231h-.37649zm1.89474 0v-14.30231l-.23008-.54834.41833-1.11951.41833 1.11951-.23009.54834v14.30231h-.37649zm1.89474 0v-14.30231l-.23008-.54834.41833-1.11951.41833 1.11951-.23008.54834v14.30231h-.3765zm1.89475 0v-14.30231l-.23008-.54834.41833-1.11951.41833 1.11951-.23009.54834v14.30231h-.37649zm1.89474 0v-14.30231l-.23008-.54834.41833-1.11951.41833 1.11951-.23008.54834v14.30231h-.3765zm1.89475 0v-14.30231l-.23008-.54834.41832-1.11951.41833 1.11951-.23008.54834v14.30231h-.37649zm1.89474 0v-14.30231l-.23008-.54834.41833-1.11951.41833 1.11951-.23009.54834v14.30231h-.37649zm1.89474 0v-14.30231l-.23008-.54834.41833-1.11951.41833 1.11951-.23008.54834v14.30231h-.3765zm1.89475 0v-14.30231l-.23008-.54834.41833-1.11951.41833 1.11951-.23009.54834v14.30231h-.37649zm-57.34167 0v-14.30231l-.23009-.54834.41833-1.11951.41833 1.11951-.23008.54834v14.30231h-.37649zm1.89474 0v-14.30231l-.23008-.54834.41833-1.11951.41833 1.11951-.23009.54834v14.30231h-.37649zm1.89474 0v-14.30231l-.23008-.54834.41833-1.11951.41833 1.11951-.23008.54834v14.30231h-.3765zm1.89475 0v-14.30231l-.23008-.54834.41833-1.11951.41832 1.11951-.23008.54834v14.30231h-.37649zm1.89474 0v-14.30231l-.23008-.54834.41833-1.11951.41833 1.11951-.23008.54834v14.30231h-.3765zm1.89475 0v-14.30231l-.23009-.54834.41833-1.11951.41833 1.11951-.23008.54834v14.30231h-.37649zm1.89474 0v-14.30231l-.23008-.54834.41833-1.11951.41833 1.11951-.23009.54834v14.30231h-.37649zm1.89474 0v-14.30231l-.23008-.54834.41833-1.11951.41833 1.11951-.23008.54834v14.30231h-.3765zm1.89475 0v-14.30231l-.23008-.54834.41833-1.11951.41832 1.11951-.23008.54834v14.30231h-.37649zm1.89474 0v-14.30231l-.23008-.54834.41833-1.11951.41833 1.11951-.23008.54834v14.30231h-.3765zm-18.57399 0v-14.30231l.23008-.54834-.41833-1.11951-.41833 1.11951.23008.54834v14.30231h.3765zm-1.89475 0v-14.30231l.23008-.54834-.41833-1.11951-.41832 1.11951.23008.54834v14.30231h.37649zm-1.89474 0v-14.30231l.23008-.54834-.41833-1.11951-.41833 1.11951.23008.54834v14.30231h.3765zm-1.89475 0v-14.30231l.23008-.54834-.41832-1.11951-.41833 1.11951.23008.54834v14.30231h.37649zm-1.89474 0v-14.30231l.23008-.54834-.41833-1.11951-.41833 1.11951.23009.54834v14.30231h.37649zm-1.89474 0v-14.30231l.23008-.54834-.41833-1.11951-.41833 1.11951.23008.54834v14.30231h.3765zm-1.89475 0v-14.30231l.23008-.54834-.41832-1.11951-.41833 1.11951.23008.54834v14.30231h.37649zm-1.89474 0v-14.30231l.23008-.54834-.41833-1.11951-.41833 1.11951.23009.54834v14.30231h.37649zm-1.89474 0v-14.30231l.23008-.54834-.41833-1.11951-.41833 1.11951.23008.54834v14.30231h.3765zm-1.89475 0v-14.30231l.23008-.54834-.41833-1.11951-.41833 1.11951.23009.54834v14.30231h.37649zm-6.18358 0v-14.30231l.23008-.54834-.41833-1.11951-.41833 1.11951.23008.54834v14.30231h.3765zm-1.89475 0v-14.30231l.23008-.54834-.41833-1.11951-.41832 1.11951.23008.54834v14.30231h.37649zm-1.89474 0v-14.30231l.23008-.54834-.41833-1.11951-.41833 1.11951.23008.54834v14.30231h.3765zm-1.89475 0v-14.30231l.23008-.54834-.41832-1.11951-.41833 1.11951.23008.54834v14.30231h.37649zm-1.89474 0v-14.30231l.23008-.54834-.41833-1.11951-.41833 1.11951.23009.54834v14.30231h.37649zm-1.89474 0v-14.30231l.23008-.54834-.41833-1.11951-.41833 1.11951.23008.54834v14.30231h.3765zm-1.89475 0v-14.30231l.23008-.54834-.41833-1.11951-.41832 1.11951.23008.54834v14.30231h.37649zm-1.89474 0v-14.30231l.23008-.54834-.41833-1.11951-.41833 1.11951.23008.54834v14.30231h.3765zm-1.89475 0v-14.30231l.23008-.54834-.41832-1.11951-.41833 1.11951.23008.54834v14.30231h.37649zm-1.89474 0v-14.30231l.23008-.54834-.41833-1.11951-.41833 1.11951.23009.54834v14.30231h.37649zm-1.89475 0v-14.30231l.23009-.54834-.41833-1.11951-.41833 1.11951.23008.54834v14.30231h.37649zm-1.89474 0v-14.30231l.23008-.54834-.41833-1.11951-.41833 1.11951.23009.54834v14.30231h.37649zm-1.89474 0v-14.30231l.23008-.54834-.41833-1.11951-.41833 1.11951.23008.54834v14.30231h.3765zm-1.89475 0v-14.30231l.23008-.54834-.41833-1.11951-.41832 1.11951.23008.54834v14.30231h.37649zm-1.89474 0v-14.30231l.23008-.54834-.41833-1.11951-.41833 1.11951.23008.54834v14.30231h.3765zm-1.89475 0v-14.30231l.23009-.54834-.41833-1.11951-.41833 1.11951.23008.54834v14.30231h.37649zm-1.89474 0v-14.30231l.23008-.54834-.41833-1.11951-.41833 1.11951.23009.54834v14.30231h.37649zm-1.89474 0v-14.30231l.23008-.54834-.41833-1.11951-.41833 1.11951.23008.54834v14.30231h.3765zm-1.89475 0v-14.30231l.23008-.54834-.41833-1.11951-.41832 1.11951.23008.54834v14.30231h.37649zm-1.89474 0v-14.30231l.23008-.54834-.41833-1.11951-.41833 1.11951.23008.54834v14.30231h.3765zm80.34011-15.97137-.41856 1.11951.2297.54776v14.30574H422.03257V308.7988l.22969-.54776-.41855-1.11951-.18376.49978-.18886-.49978-.18887.50378-.18886-.50378-.18886.49978-.18376-.49978-.18886.50378-.18886-.50378zm-40.68609 0 .41856 1.11951-.22969.54776v14.30574H377.96739V308.7988l-.2297-.54776.41856-1.11951.18376.49978.18886-.49978.18886.50378.18886-.50378.18886.49978.18376-.49978.18886.50378.18886-.50378z" style="fill:#000;fill-opacity:1;fill-rule:evenodd;stroke:none;stroke-width:.625;stroke-linecap:butt;stroke-linejoin:miter;stroke-miterlimit:4;stroke-opacity:1"/>
  <path style="fill:none;fill-opacity:.75;fill-rule:evenodd;stroke:#000;stroke-width:.5;stroke-linecap:butt;stroke-linejoin:miter;stroke-miterlimit:4;stroke-opacity:1;stroke-dasharray:none" d="M338.08027 329.8885h124.81449"/>
  <path style="stroke-dasharray:none;stroke-opacity:1;stroke-miterlimit:4;stroke-linejoin:miter;stroke-linecap:round;stroke-width:1;stroke:#000;fill-opacity:1;fill:#fff" d="M382.00031 323.87347h-6.18744v9.85477h6.18744v-9.85477z"/>
  <path style="fill:#fff;fill-opacity:1;stroke:#000;stroke-width:.49;stroke-linecap:round;stroke-linejoin:miter;stroke-miterlimit:4;stroke-opacity:1;stroke-dasharray:none" d="M381.21657 323.01652h-4.61996v.84151h4.61996v-.84151z"/>
  <path style="stroke-dasharray:none;stroke-opacity:1;stroke-miterlimit:4;stroke-linejoin:miter;stroke-linecap:round;stroke-width:1;stroke:#000;fill-opacity:1;fill:#fff" d="M338.75581 323.45873h-3.67985v10.26418h3.67985v-10.26418zM417.99964 323.87347h6.18744v9.85477h-6.18744v-9.85477z"/>
  <path style="fill:#fff;fill-opacity:1;stroke:#000;stroke-width:.49;stroke-linecap:round;stroke-linejoin:miter;stroke-miterlimit:4;stroke-opacity:1;stroke-dasharray:none" d="M418.78338 323.01652h4.61996v.84151h-4.61996v-.84151z"/>
  <path style="fill:#fff;fill-opacity:1;stroke:#000;stroke-width:1;stroke-linecap:round;stroke-linejoin:miter;stroke-miterlimit:4;stroke-opacity:1;stroke-dasharray:none" d="M461.24414 323.45873h3.67985v10.26418h-3.67985v-10.26418z"/>
  <path style="fill:#f9f9f9;fill-opacity:1;fill-rule:evenodd;stroke:#000;stroke-width:.75;stroke-linecap:round;stroke-linejoin:round;stroke-miterlimit:4;stroke-opacity:1;stroke-dasharray:none" d="M397.30501 161.62761c-.63022-.1883-1.26043-.37661-1.89065-.56491-.15755-.31608-.05908-.77339.11817-1.12982-.38076-.03363-.4661.19503-.76807.34298.16411-.56491 1.29325-.74649 1.18165-1.12982-.56457-.16813-.87311-.09416-1.3786.12105-.57769-.14123-.82059.50438-1.16195 1.02894-.48579-.2152-.87311-.14795-1.22104.20176.2035.54473.84028.64561 1.26043.96842.06564.66579.46609 1.21052 1.02409 1.45263-.65647 1.49298.30198 2.86491 1.22104 3.51052-.78777.32281-1.36874 1.71995-1.32936 2.28487l1.90049-.01009 1.0438-7.07653z"/>
  <path style="fill:#f9f9f9;fill-opacity:1;fill-rule:evenodd;stroke:#000;stroke-width:.5;stroke-linecap:butt;stroke-linejoin:miter;stroke-miterlimit:4;stroke-opacity:1;stroke-dasharray:none" d="m400.31822 138.34884-.05908-1.20959.53174.36606.39388-.63663.41358.55705.41358-.54114.27571.63663.45297-.39789-.09847 1.19368-2.32391.03183z"/>
  <path style="stroke-dasharray:none;stroke-opacity:1;stroke-miterlimit:4;stroke-linejoin:miter;stroke-linecap:butt;stroke-width:1;stroke:#000;fill-rule:evenodd;fill-opacity:1;fill:#fff" d="M395.45375 141.97676c-1.31294 3.12047-1.24797 7.75803-.86654 12.26665.3013 3.56155 2.49459 5.29941 4.33272 5.16491l1.0241-10.97543-4.49028-6.45613z"/>
  <path style="stroke-dasharray:none;stroke-opacity:1;stroke-miterlimit:4;stroke-linejoin:miter;stroke-linecap:butt;stroke-width:.625;stroke:#000;fill-rule:evenodd;fill-opacity:1;fill:#f9f9f9" d="M396.46997 134.50164c-1.3531-.01695-1.97494 1.53042-1.92314 2.26671.11603 1.64925 1.13225 2.14297 2.03343 2.15372.59854.00726 1.7472-.79596 1.75771-2.01249.00678-.78573-.59059-2.39245-1.868-2.40794zm-.01378 1.01969c.763.01073.90099.70686.89694 1.25145-.00628.8432-.4461 1.15905-.8036 1.15402-.53828-.00746-.8753-.03652-.94461-1.17963-.03094-.51033.04305-1.23759.85127-1.22584z"/>
  <path style="fill:#f9f9f9;fill-opacity:1;fill-rule:evenodd;stroke:#000;stroke-width:1;stroke-linecap:butt;stroke-linejoin:miter;stroke-miterlimit:4;stroke-opacity:1" d="M405.81289 168.70918c-.10503-1.4997-.03282-2.93888.09847-4.29736.1313-1.47281 1.34643-2.22251 1.43768-3.6114.04661-.70936-.63678-1.27105-1.85125-1.41228.35449-.96169.45296-1.88304.53174-2.88508.45297-.30263.84685-.54474.88624-1.08947.01313-.61872-.56457-.89445-.61052-1.43246-.19694-2.17894.05908-4.37806-.59083-6.53683.53175-.64561-.90593-2.90526-1.71339-3.51052.02626-.53129-.47923-1.10292-1.10288-1.2307-.56456.08742-.65647-.49094-.86654-1.04912h-1.22104c-.1116.70613-.59739.90789-1.28012.66578-.19694-.22192-.6893-.28245-1.12257-.18157-.53174-.58509-1.41798-1.0693-2.3633-1.39211-.21007.16141-.30198.32281-.27572.54474-.49236-.30263-.88624-.56491-1.47707-.60526.19038-1.12983.03648-1.86779-.04886-2.83621.03282-.34971.18381-.63889.39388-.68597.55144-.02017.79725-.3515 1.09266-.73484-.0558-.45058-.28885-.88099-.69914-1.17017-.69915.30263-1.10313.62274-1.64472 1.18765-.11816.14795-.41358.78011-.41358 1.08947.09848 1.29122-.31485 2.82726.25628 4.15884.59739.59181 1.4705 1.04239 2.20575 1.35175-.37419 2.19239.90593 3.86023 1.94972 4.27719-.09519.61871.2429 1.47953.65976 1.85613-.60067 1.19035-1.45821 1.81454-1.28997 4.53947.28144 4.55839.08544 10.70602-1.10934 14.98321l10.16866.00712z"/>
  <path style="stroke-dasharray:none;stroke-opacity:1;stroke-miterlimit:4;stroke-linejoin:miter;stroke-linecap:butt;stroke-width:.5;stroke:none;fill-rule:evenodd;fill-opacity:1;fill:#000" d="M398.79204 149.08412c2.44208-.87426 4.64782-.09415 5.43559 1.97719-1.53565-1.31507-2.96772-1.99139-5.43559-1.97719z"/>
  <path style="fill:#000;fill-opacity:1;fill-rule:evenodd;stroke:none;stroke-width:.5;stroke-linecap:butt;stroke-linejoin:miter;stroke-miterlimit:4;stroke-opacity:1;stroke-dasharray:none" d="M401.83228 159.87581c-.03089.23241.35966.60689.71138.46058.28936-.12038.79205-.96285.6696-1.65439-.35675.69141-.76528 1.45187-1.38098 1.19381z"/>
  <path style="stroke-dasharray:none;stroke-opacity:1;stroke-miterlimit:4;stroke-linejoin:miter;stroke-linecap:butt;stroke-width:.5;stroke:none;fill-rule:evenodd;fill-opacity:1;fill:#000" d="M402.18916 163.20129c.9715-.37906 1.78353-2.12427 1.23295-3.22224-.106 1.20068-.55726 2.1942-1.23295 3.22224zM401.7165 166.34866c.16578-1.08765 1.5053-3.47515 1.85126-3.83333.62312-.71136.16536 3.24855-.86655 4.03508.57508-1.14146 1.05249-3.79657-.98471-.20175zM398.13216 159.04516c-.02633.13489.69426 1.55818 1.29982 1.53333.6032.07622.67961-1.06963.74838-1.21052-.58508.86895-1.43871.61486-2.0482-.32281zM399.78647 161.0627c.0742 1.27582-.51047 2.22719-1.65431 2.17894.64909-.7019 1.3226-1.30614 1.65431-2.17894zM398.05338 165.21883c-.0938.07208 1.45359-1.55506 1.61493-1.77543.34798-.22328-.48117 2.98413-.74838 3.34912-.04471-1.06167.52092-2.51396-.86655-1.57369zM398.67338 144.04631c.38515 1.22237-.30489 2.20764-1.21082 2.61115.69708-.692.94532-1.55663 1.21082-2.61115z"/>
  <path style="fill:none;fill-opacity:.75;fill-rule:evenodd;stroke:#000;stroke-width:.5;stroke-linecap:butt;stroke-linejoin:miter;stroke-miterlimit:4;stroke-opacity:1;stroke-dasharray:none" d="M405.4954 147.51169c-.44679-1.30393-1.62448-.41453-1.27893 1.96053.95308 2.9554.95884 7.06837.57233 10.0168-.34874 2.66034-.81403 5.52806-.63022 8.19121"/>
  <path style="fill:#fefefe;fill-opacity:1;fill-rule:evenodd;stroke:#000;stroke-width:.75;stroke-linecap:butt;stroke-linejoin:miter;stroke-miterlimit:4;stroke-opacity:1;stroke-dasharray:none" d="M399.94403 140.53193c-.65192.00888-.51862-1.3398-.25603-1.55415.41358-.64304 1.00441-1.0503 1.65431-1.02886.94532-.05002 1.57554.4144 1.77248 1.13604.43327.22149.31313 1.68278-.2224 1.51388-.16412.85024-.47368.97386-.66384 1.22977-.24946.47156-1.26699.45013-1.57553-.04287-.51862-.55016-.56457-.57504-.70899-1.25381z"/>
  <path style="fill:#000;fill-opacity:1;fill-rule:evenodd;stroke:none;stroke-width:.5;stroke-linecap:butt;stroke-linejoin:miter;stroke-miterlimit:4;stroke-opacity:1;stroke-dasharray:none" d="M402.57477 139.89673c-.5458-.12704-.84145-.2289-1.10404-.64586-.31511.48421-.52201.57312-1.13252.71435.50448-.29594.91131-.65292 1.14724-1.14417.2451.37891.60007.79443 1.08932 1.07568z"/>
  <path style="fill:none;fill-opacity:.75;fill-rule:evenodd;stroke:#000;stroke-width:.5;stroke-linecap:butt;stroke-linejoin:miter;stroke-miterlimit:4;stroke-opacity:1;stroke-dasharray:none" d="M399.82564 142.57389c.38993 1.20787 2.53452 1.47417 2.84088.28533"/>
  <path style="stroke-dasharray:none;stroke-opacity:1;stroke-miterlimit:4;stroke-linejoin:miter;stroke-linecap:butt;stroke-width:.5;stroke:none;fill-rule:evenodd;fill-opacity:1;fill:#000" d="M399.2129 145.56979c.02785 1.5027 1.33689 2.89128 3.008 2.96736-1.41698-.60933-2.26428-1.56392-3.008-2.96736zM399.79779 145.25593c.40036.97258 1.45075 1.98256 2.45096 1.42662-.79972-.42375-1.72029-.62308-2.45096-1.42662z"/>
  <path style="fill:#000;fill-opacity:1;fill-rule:evenodd;stroke:none;stroke-width:.5;stroke-linecap:butt;stroke-linejoin:miter;stroke-miterlimit:4;stroke-opacity:1;stroke-dasharray:none" d="M401.12568 151.66096c.70204 2.04941.41873 4.21344-.63022 6.05262.40538-2.01754.71311-4.03508.63022-6.05262z"/>
  <path style="fill:none;fill-opacity:.75;fill-rule:evenodd;stroke:#000;stroke-width:.5;stroke-linecap:butt;stroke-linejoin:miter;stroke-miterlimit:4;stroke-opacity:1;stroke-dasharray:none" d="M405.84163 156.24089c-.38064.02853-.84519-.74597-.8359-1.51634"/>
  <path style="stroke-dasharray:none;stroke-opacity:1;stroke-miterlimit:4;stroke-linejoin:miter;stroke-linecap:butt;stroke-width:.5;stroke:none;fill-rule:evenodd;fill-opacity:1;fill:#000" d="M400.58928 140.15498c.22746-.20924.55239-.24372.77985-.08203-.05106.27105-.11953.43868-.21237.83813-.16247-.41847.02669-.73708-.56748-.7561zm1.10014-.0107c.19497-.37093.7903-.18903.76245.08916-.14274-.1177-.45608-.19973-.76245-.08916zm-.55355.7454c.20053.07371.38993.08322.58489.00714-.04085.35427-.58303.38043-.56261-.01427m-.11406.48753c.27155-.20686.66496-.12483.846.01783-.2263.06777-.66496.09273-.846-.01783z"/>
  <path d="M400.75791 317.45456v-8.65518l-.23009-.54834.41833-1.11951.41833 1.11951-.23008.54834v8.65518h-.37649zm1.89474 0v-8.65518l-.23008-.54834.41833-1.11951.41833 1.11951-.23009.54834v8.65518h-.37649zm1.89474 0v-8.65518l-.23008-.54834.41833-1.11951.41833 1.11951-.23008.54834v8.65518h-.3765zm1.89475 0v-8.65518l-.23008-.54834.41833-1.11951.41832 1.11951-.23008.54834v8.65518h-.37649zm-7.20553 0v-8.65518l.23008-.54834-.41833-1.11951-.41833 1.11951.23008.54834v8.65518h.3765zm-1.89475 0v-8.65518l.23008-.54834-.41833-1.11951-.41832 1.11951.23008.54834v8.65518h.37649zm-1.89474 0v-8.65518l.23008-.54834-.41833-1.11951-.41833 1.11951.23008.54834v8.65518h.3765zm-1.89475 0v-8.65518l.23008-.54834-.41832-1.11951-.41833 1.11951.23008.54834v8.65518h.37649z" style="stroke-opacity:1;stroke-miterlimit:4;stroke-linejoin:miter;stroke-linecap:butt;stroke-width:.625;stroke:none;fill-rule:evenodd;fill-opacity:1;fill:#fff"/>
  <path style="stroke-dasharray:none;stroke-opacity:1;stroke-miterlimit:4;stroke-linejoin:miter;stroke-linecap:round;stroke-width:.8;stroke:#000;fill-opacity:1;fill:#fff" d="M338.52012 321.18374h-3.20847v2.26186h3.20847v-2.26186z"/>
  <path style="fill:#fff;fill-opacity:1;stroke:#000;stroke-width:.4;stroke-linecap:round;stroke-linejoin:miter;stroke-miterlimit:4;stroke-opacity:1;stroke-dasharray:none" d="M338.48672 315.8966v-.96097c0-.16927-.17397-.30554-.39007-.30554-.21609 0-.39006.13627-.39006.30554v.96097c0 .16926.17397.30553.39006.30553.2161 0 .39007-.13627.39007-.30553zM336.12518 315.8966v-.96097c0-.16927-.17397-.30554-.39007-.30554-.21609 0-.39006.13627-.39006.30554v.96097c0 .16926.17397.30553.39006.30553.2161 0 .39007-.13627.39007-.30553z"/>
  <path style="fill:#fff;fill-opacity:1;fill-rule:evenodd;stroke:#000;stroke-width:.8;stroke-linecap:butt;stroke-linejoin:miter;stroke-miterlimit:4;stroke-opacity:1;stroke-dasharray:none" d="m335.56731 320.731.66-13.05559c-.92468-.01892-.23031-.96228.20625-.95687.05779-.32707.19808-.45141.48233-.47033.28424.01892.42453.14326.48233.47033.43655-.00541 1.13092.93795.20624.95687l.66 13.05559h-2.69715z"/>
  <path style="stroke-dasharray:none;stroke-opacity:1;stroke-miterlimit:4;stroke-linejoin:miter;stroke-linecap:round;stroke-width:.4;stroke:#000;fill-opacity:1;fill:#fff" d="M337.79923 308.64703h-1.76669c-.15425 0-.27843.09727-.27843.2181 0 .12083.12418.2181.27843.2181h1.76669c.15425 0 .27843-.09727.27843-.2181 0-.12083-.12418-.2181-.27843-.2181zM337.87308 313.92984h-1.91439c-.15425 0-.27843.09727-.27843.21809 0 .12083.12418.2181.27843.2181h1.91439c.15425 0 .27844-.09727.27844-.2181 0-.12082-.12419-.21809-.27844-.21809zM337.99031 316.46623h-2.14886c-.15425 0-.27843.09727-.27843.2181 0 .12083.12418.2181.27843.2181h2.14886c.15425 0 .27844-.09727.27844-.2181 0-.12083-.12419-.2181-.27844-.2181zM338.2834 320.71509h-2.73503c-.15425 0-.27844.09727-.27844.2181 0 .12082.12419.2181.27844.2181h2.73503c.15426 0 .27844-.09728.27844-.2181 0-.12083-.12418-.2181-.27844-.2181z"/>
  <path style="stroke-dasharray:none;stroke-opacity:1;stroke-miterlimit:4;stroke-linejoin:miter;stroke-linecap:butt;stroke-width:.4;stroke:#000;fill-rule:evenodd;fill-opacity:.75;fill:none" d="M337.35416 306.71647h-.87655M337.58619 307.66963h-1.34061"/>
  <path style="fill:#fff;fill-opacity:1;stroke:#000;stroke-width:.4;stroke-linecap:round;stroke-linejoin:miter;stroke-miterlimit:4;stroke-opacity:1;stroke-dasharray:none" d="M337.30595 315.8966v-.96097c0-.16927-.17397-.30554-.39006-.30554-.2161 0-.39007.13627-.39007.30554v.96097c0 .16926.17397.30553.39007.30553.21609 0 .39006-.13627.39006-.30553z"/>
  <path style="fill:#fff;fill-opacity:1;stroke:#000;stroke-width:.80000001;stroke-linecap:round;stroke-linejoin:miter;stroke-miterlimit:4;stroke-opacity:1" d="M464.6883 321.18374h-3.20847v2.26186h3.20847v-2.26186z"/>
  <path style="fill:#fff;fill-opacity:1;stroke:#000;stroke-width:.40000001;stroke-linecap:round;stroke-linejoin:miter;stroke-miterlimit:4;stroke-opacity:1" d="M463.47413 315.8966v-.96097c0-.16927-.17397-.30554-.39007-.30554-.21609 0-.39006.13627-.39006.30554v.96097c0 .16926.17397.30553.39006.30553.2161 0 .39007-.13627.39007-.30553z"/>
  <path style="fill:#fff;fill-opacity:1;stroke:#000;stroke-width:.40000001;stroke-linecap:round;stroke-linejoin:miter;stroke-miterlimit:4;stroke-opacity:1" d="M463.47413 315.8966v-.96097c0-.16927-.17397-.30554-.39007-.30554-.21609 0-.39006.13627-.39006.30554v.96097c0 .16926.17397.30553.39006.30553.2161 0 .39007-.13627.39007-.30553z"/>
  <path style="fill:#fff;fill-opacity:1;fill-rule:evenodd;stroke:#000;stroke-width:.80000001;stroke-linecap:butt;stroke-linejoin:miter;stroke-miterlimit:4;stroke-opacity:1" d="m461.73549 320.731.66-13.05559c-.92468-.01892-.23031-.96228.20625-.95687.05779-.32707.19808-.45141.48233-.47033.28424.01892.42453.14326.48233.47033.43655-.00541 1.13092.93795.20624.95687l.66 13.05559h-2.69715z"/>
  <path style="fill:#fff;fill-opacity:1;stroke:#000;stroke-width:.40000001;stroke-linecap:round;stroke-linejoin:miter;stroke-miterlimit:4;stroke-opacity:1" d="M463.96741 308.64703h-1.76669c-.15425 0-.27843.09727-.27843.2181 0 .12083.12418.2181.27843.2181h1.76669c.15425 0 .27843-.09727.27843-.2181 0-.12083-.12418-.2181-.27843-.2181zM464.04125 313.92984h-1.91439c-.15425 0-.27843.09727-.27843.21809 0 .12083.12418.2181.27843.2181h1.91439c.15425 0 .27844-.09727.27844-.2181 0-.12082-.12419-.21809-.27844-.21809zM464.15849 316.46623h-2.14886c-.15425 0-.27843.09727-.27843.2181 0 .12083.12418.2181.27843.2181h2.14886c.15425 0 .27844-.09727.27844-.2181 0-.12083-.12419-.2181-.27844-.2181zM464.45158 320.71509h-2.73503c-.15425 0-.27844.09727-.27844.2181 0 .12082.12419.2181.27844.2181h2.73503c.15426 0 .27844-.09728.27844-.2181 0-.12083-.12418-.2181-.27844-.2181z"/>
  <path style="fill:none;fill-opacity:.75;fill-rule:evenodd;stroke:#000;stroke-width:.40000001;stroke-linecap:butt;stroke-linejoin:miter;stroke-miterlimit:4;stroke-opacity:1" d="M463.52234 306.71647h-.87655M463.75437 307.66963h-1.34061"/>
  <path style="fill:#fff;fill-opacity:1;stroke:#000;stroke-width:.40000001;stroke-linecap:round;stroke-linejoin:miter;stroke-miterlimit:4;stroke-opacity:1" d="M463.47413 315.8966v-.96097c0-.16927-.17397-.30554-.39006-.30554-.2161 0-.39007.13627-.39007.30554v.96097c0 .16926.17397.30553.39007.30553.21609 0 .39006-.13627.39006-.30553z"/>
  <path style="fill:none;fill-opacity:.75;fill-rule:evenodd;stroke:#000;stroke-width:.49999997;stroke-linecap:round;stroke-linejoin:round;stroke-miterlimit:4;stroke-opacity:1" d="M414.50109 246.75155s0 0 0 0z" transform="translate(-.166637)"/>
  <path style="fill:#fff;fill-opacity:1;fill-rule:evenodd;stroke:#000;stroke-width:.75;stroke-linecap:round;stroke-linejoin:round;stroke-miterlimit:4;stroke-opacity:1" d="M415.67225 246.10409c-.1194.01033-.24116.05704-.367.1661-.16831-.00639-.33023.03153-.47298.12101-.04688.15128-.07973.03107.09072.18873-.12784-.04687-.32099.18429-.468.18856-.2855.01917-.43664.02575-.24915.21751.6477.4389.80429.99067.79253 1.5463-.01407.66454-.35034.96201-.98552 1.34698-.95215-.03013-1.79594-1.39843-2.04302-2.58561.14463-.70507-.41592-1.41025-1.41026-1.0306-.94612.19284-2.5789.80195-2.3499 1.33828-.6207.47608-1.45801 1.24096-1.21094 1.69896-.30131.53031-1.5434 2.20606-.99501 2.73034-.27721 1.59696-.86141 3.12127-1.59059 4.62783-.68699 1.30167-.34316 2.29612.05457 1.78991-.12655.4821.2348.76568.46983.43423-.0452.31939.30304.31303.66914.07198.31035.09943.87381-.20813 1.01241-.54259.3435.11149 1.00326-.18335 1.24732-.55999-.05423.46402-.14903.94624-.20327 1.41026h10.06717c-.12358-.33664-.57225-.47456-.88824-.6114.13144-.58428.39534-2.57385.30373-3.06176.58804-.73293 1.02287-1.63223.69049-2.73588-.12357-.18323-.18312-.54557-.08937-.77355.12996-.11079.27246-.56027.02531-.9523-.1044-.20027-.04928-.38139.10519-.54971.17578-.21093.15022-.65212-.07988-.85026.08096-.2642-.13169-.56611-.19774-.84948.08522-.30042-.09811-.60126-.14712-.90168l.00633-.00633c.1598.06605.20417.17657.35118-.05141-.41334-.54117-.63432-1.42061-1.23941-1.62302-.26366-.00533-.51746-.16594-.77987-.19062-.03937-.0037-.07885-.00423-.11865-.00079zm-5.36261 7.71094c.24809.14229.56186.2298.74428.1313.25174.10215.55831.12741.821.0435-.32106.60928-.75177 1.07631-.96337 1.82788-.28458-.15324-.66771-.1638-1.01795.03321l-.52519-.13129.94123-1.9046zm4.85403 3.75937.23571.2357.07672 1.04484-.47615-.14712-.20248-.78857.3662-.34485z" transform="translate(-.166637)"/>
  <path style="fill:none;fill-opacity:.75;fill-rule:evenodd;stroke:#000;stroke-width:.49999997;stroke-linecap:round;stroke-linejoin:round;stroke-miterlimit:4;stroke-opacity:1" d="M414.3203 254.01922c.32542.65084.32542 1.31975.32542 1.95251-.06026.87983.07834 1.83198.36157 2.74797.40376.0904.84368.21695 1.04857.54237" transform="translate(-.166637)"/>
  <path style="fill:#000;fill-opacity:1;fill-rule:evenodd;stroke:none;stroke-width:.050000001;stroke-linecap:round;stroke-linejoin:round;stroke-miterlimit:4;stroke-opacity:1" d="M415.06091 257.74006c.53969-.71564.69798-1.28943 1.04823-2.01181.73502-.28173 1.58485-1.97546 1.15296-2.79017.03096.92005-.76273 2.32174-1.44498 2.43636-.26471.74232-.51684 1.48637-1.04049 1.76258l.28428.60304zM414.66607 255.10647c.71508-.48889 1.21041-1.13271 1.08617-2.10653-.26124.71989-.68745 1.40279-1.15657 1.56708l.0704.53945z" transform="translate(-.166637)"/>
  <path style="fill:#000;fill-opacity:1;fill-rule:evenodd;stroke:none;stroke-width:.49999997;stroke-linecap:round;stroke-linejoin:round;stroke-miterlimit:4;stroke-opacity:1" d="M412.7246 249.93447c-.46752-.00885-.66756-.74568-1.08386-1.39323-.31455-.48927-.14739-1.22685-.5363-1.66023-.23094-.25735-.7248-.0634-1.03841.08052-.48437.22228-.9753.31178-1.28847.76788 1.40896-.40424 1.98929-.0489 2.22436.6517.17142.9321.89526 1.82968 1.72268 1.55336z" transform="translate(-.166637)"/>
  <path style="fill:none;fill-opacity:.75;fill-rule:evenodd;stroke:#000;stroke-width:.49999997;stroke-linecap:round;stroke-linejoin:round;stroke-miterlimit:4;stroke-opacity:1" d="M412.69594 254.07762c-.18242.53996-.29917 1.49584.30646 2.21092.0073.51808.32106 1.1456.6786 1.68556-.27727.35025-.40132.74427-.24079 1.24775M411.08282 255.80696c.83183 1.08722.15323 2.45901-.59104 3.393M410.49088 256.03511c.4597.96318-.2189 2.25471-.78805 3.15221M407.92384 257.71142c.00403-.06476.02189-.25955.02189-.39403 0-.13618-.10814-.26007-.15323-.35024-.08445-.1689.04519-.32978.15323-.43781.12041-.12042.31256-.25479.4597-.32836.15445-.07722.22245-.12266.30646-.26268.11218-.18696.38881-.45292.54726-.26269M414.10795 249.86114c-.60427.28329-1.03865 1.75783-1.1036 2.27126-.0567.44827-.18083.90365-.479 1.25344-.11014.1292-.21773.26062-.33289.38531" transform="translate(-.166637)"/>
  <path style="fill:#000;fill-opacity:1;fill-rule:evenodd;stroke:none;stroke-width:.49999997;stroke-linecap:round;stroke-linejoin:round;stroke-miterlimit:4;stroke-opacity:1" d="M406.42899 252.74425c.46875 1.64414-.45574 4.07202-1.63527 4.55176.74074-1.40217 1.37789-3.14959 1.63527-4.55176z" transform="translate(-.166637)"/>
  <path style="fill:#000;fill-opacity:1;fill-rule:evenodd;stroke:none;stroke-width:.0625;stroke-linecap:round;stroke-linejoin:round;stroke-miterlimit:4;stroke-opacity:1" d="M410.08309 249.78924c-.37608.57339-.74565.59442-.949.47755-.32389-.18617-.01986-.66664-.09618-.64389-.25577.17264-.54991.23448-.64489.10243-.09497-.13206-.08696-.49134.33257-.86124-.05655.50939.17501.61604.62861.35934-.08579.49016.14584.74746.72889.56581z" transform="translate(-.166637)"/>
  <path style="fill:#000;fill-opacity:1;fill-rule:evenodd;stroke:none;stroke-width:.125;stroke-linecap:round;stroke-linejoin:round;stroke-miterlimit:4;stroke-opacity:1" d="M414.98348 246.47072c.58009.07662 1.0777.89884 1.25282 1.21625-.3393-.22255-.85586-.78912-1.43222-.5776l.1794-.63865z" transform="translate(-.166637)"/>
  <path style="fill:#000;fill-opacity:1;fill-rule:evenodd;stroke:none;stroke-width:.1;stroke-linecap:round;stroke-linejoin:round;stroke-miterlimit:4;stroke-opacity:1" d="m416.80035 246.50315-.53713.28917.81946.51548-.28233-.80465z" transform="translate(-.166637)"/>
  <path style="fill:#000;fill-opacity:1;fill-rule:evenodd;stroke:none;stroke-width:.0625;stroke-linecap:round;stroke-linejoin:round;stroke-miterlimit:4;stroke-opacity:1" d="M409.49716 251.6691c-.37608.57339-.74565.59442-.949.47755-.32389-.18617-.23349-.78666.22011-1.04336-.08579.49016.14584.74746.72889.56581zM412.28034 250.20427c-.37608.57339-.74565.59442-.949.47755-.32389-.18617-.23349-.78666.22011-1.04336-.08579.49016.14584.74746.72889.56581zM412.23151 251.37613c-.37608.57339-.74565.59442-.949.47755-.32389-.18617-.23349-.78666.22011-1.04336-.08579.49016.14584.74746.72889.56581zM411.54792 252.32828c-.37608.57339-.74565.59442-.949.47755-.32389-.18617-.01986-.66664-.09618-.64389-.25577.17264-.54991.23448-.64489.10243-.09497-.13206-.08696-.49134.33257-.86124-.05655.50939.17501.61604.62861.35934-.08579.49016.14584.74746.72889.56581zM410.52254 250.93668c-.37608.57339-.74565.59442-.949.47755-.32389-.18617-.23349-.78666.22011-1.04336-.08579.49016.14584.74746.72889.56581zM410.86433 248.39764c-.37608.57339-.74565.59442-.949.47755-.32389-.18617-.23349-.78666.22011-1.04336-.08579.49016.14584.74746.72889.56581zM415.56632 250.09509c-.08125.68089.18805.93486.4189.97631.36771.06599.44429-.49741.48806-.43087.08462.29675.26993.5334.42761.49348.15768-.03994.38281-.32006.29982-.87318-.28459.42624-.53045.35881-.71237-.12961-.24984.43035-.59272.47817-.92202-.03613zM416.4989 249.0155c-.08124.68089.18806.93486.41891.97631.3677.06599.68503-.45176.50311-.94018-.24984.43035-.59272.47817-.92202-.03613zM416.54773 251.35923c-.08124.68089.18806.93486.41891.97631.3677.06599.68503-.45176.50311-.94018-.24984.43035-.59272.47817-.92202-.03613zM409.83941 256.50087c-.09399.67925-.41887.85667-.65269.83825-.37242-.02937-.54815-.61064-.24837-1.037.1326.47962.45216.61279.90106.19875z" transform="translate(-.166637)"/>
  <g>
    <path style="fill:none;fill-opacity:.75;fill-rule:evenodd;stroke:#000;stroke-width:.49999997;stroke-linecap:round;stroke-linejoin:round;stroke-miterlimit:4;stroke-opacity:1" d="M414.50109 246.75155s0 0 0 0z" transform="matrix(-1 0 0 1 800.1667 0)"/>
    <path style="fill:#fff;fill-opacity:1;fill-rule:evenodd;stroke:#000;stroke-width:.75;stroke-linecap:round;stroke-linejoin:round;stroke-miterlimit:4;stroke-opacity:1" d="M415.67225 246.10409c-.1194.01033-.24116.05704-.367.1661-.16831-.00639-.33023.03153-.47298.12101-.04688.15128-.07973.03107.09072.18873-.12784-.04687-.32099.18429-.468.18856-.2855.01917-.43664.02575-.24915.21751.6477.4389.80429.99067.79253 1.5463-.01407.66454-.35034.96201-.98552 1.34698-.95215-.03013-1.79594-1.39843-2.04302-2.58561.14463-.70507-.41592-1.41025-1.41026-1.0306-.94612.19284-2.5789.80195-2.3499 1.33828-.6207.47608-1.45801 1.24096-1.21094 1.69896-.30131.53031-1.5434 2.20606-.99501 2.73034-.27721 1.59696-.86141 3.12127-1.59059 4.62783-.68699 1.30167-.34316 2.29612.05457 1.78991-.12655.4821.2348.76568.46983.43423-.0452.31939.30304.31303.66914.07198.31035.09943.87381-.20813 1.01241-.54259.3435.11149 1.00326-.18335 1.24732-.55999-.05423.46402-.14903.94624-.20327 1.41026h10.06717c-.12358-.33664-.57225-.47456-.88824-.6114.13144-.58428.39534-2.57385.30373-3.06176.58804-.73293 1.02287-1.63223.69049-2.73588-.12357-.18323-.18312-.54557-.08937-.77355.12996-.11079.27246-.56027.02531-.9523-.1044-.20027-.04928-.38139.10519-.54971.17578-.21093.15022-.65212-.07988-.85026.08096-.2642-.13169-.56611-.19774-.84948.08522-.30042-.09811-.60126-.14712-.90168l.00633-.00633c.1598.06605.20417.17657.35118-.05141-.41334-.54117-.63432-1.42061-1.23941-1.62302-.26366-.00533-.51746-.16594-.77987-.19062-.03937-.0037-.07885-.00423-.11865-.00079zm-5.36261 7.71094c.24809.14229.56186.2298.74428.1313.25174.10215.55831.12741.821.0435-.32106.60928-.75177 1.07631-.96337 1.82788-.28458-.15324-.66771-.1638-1.01795.03321l-.52519-.13129.94123-1.9046zm4.85403 3.75937.23571.2357.07672 1.04484-.47615-.14712-.20248-.78857.3662-.34485z" transform="matrix(-1 0 0 1 800.1667 0)"/>
    <path style="fill:none;fill-opacity:.75;fill-rule:evenodd;stroke:#000;stroke-width:.49999997;stroke-linecap:round;stroke-linejoin:round;stroke-miterlimit:4;stroke-opacity:1" d="M414.3203 254.01922c.32542.65084.32542 1.31975.32542 1.95251-.06026.87983.07834 1.83198.36157 2.74797.40376.0904.84368.21695 1.04857.54237" transform="matrix(-1 0 0 1 800.1667 0)"/>
    <path style="fill:#000;fill-opacity:1;fill-rule:evenodd;stroke:none;stroke-width:.050000001;stroke-linecap:round;stroke-linejoin:round;stroke-miterlimit:4;stroke-opacity:1" d="M415.06091 257.74006c.53969-.71564.69798-1.28943 1.04823-2.01181.73502-.28173 1.58485-1.97546 1.15296-2.79017.03096.92005-.76273 2.32174-1.44498 2.43636-.26471.74232-.51684 1.48637-1.04049 1.76258l.28428.60304zM414.66607 255.10647c.71508-.48889 1.21041-1.13271 1.08617-2.10653-.26124.71989-.68745 1.40279-1.15657 1.56708l.0704.53945z" transform="matrix(-1 0 0 1 800.1667 0)"/>
    <path style="fill:#000;fill-opacity:1;fill-rule:evenodd;stroke:none;stroke-width:.49999997;stroke-linecap:round;stroke-linejoin:round;stroke-miterlimit:4;stroke-opacity:1" d="M412.7246 249.93447c-.46752-.00885-.66756-.74568-1.08386-1.39323-.31455-.48927-.14739-1.22685-.5363-1.66023-.23094-.25735-.7248-.0634-1.03841.08052-.48437.22228-.9753.31178-1.28847.76788 1.40896-.40424 1.98929-.0489 2.22436.6517.17142.9321.89526 1.82968 1.72268 1.55336z" transform="matrix(-1 0 0 1 800.1667 0)"/>
    <path style="fill:none;fill-opacity:.75;fill-rule:evenodd;stroke:#000;stroke-width:.49999997;stroke-linecap:round;stroke-linejoin:round;stroke-miterlimit:4;stroke-opacity:1" d="M412.69594 254.07762c-.18242.53996-.29917 1.49584.30646 2.21092.0073.51808.32106 1.1456.6786 1.68556-.27727.35025-.40132.74427-.24079 1.24775M411.08282 255.80696c.83183 1.08722.15323 2.45901-.59104 3.393M410.49088 256.03511c.4597.96318-.2189 2.25471-.78805 3.15221M407.92384 257.71142c.00403-.06476.02189-.25955.02189-.39403 0-.13618-.10814-.26007-.15323-.35024-.08445-.1689.04519-.32978.15323-.43781.12041-.12042.31256-.25479.4597-.32836.15445-.07722.22245-.12266.30646-.26268.11218-.18696.38881-.45292.54726-.26269M414.10795 249.86114c-.60427.28329-1.03865 1.75783-1.1036 2.27126-.0567.44827-.18083.90365-.479 1.25344-.11014.1292-.21773.26062-.33289.38531" transform="matrix(-1 0 0 1 800.1667 0)"/>
    <path style="fill:#000;fill-opacity:1;fill-rule:evenodd;stroke:none;stroke-width:.49999997;stroke-linecap:round;stroke-linejoin:round;stroke-miterlimit:4;stroke-opacity:1" d="M406.42899 252.74425c.46875 1.64414-.45574 4.07202-1.63527 4.55176.74074-1.40217 1.37789-3.14959 1.63527-4.55176z" transform="matrix(-1 0 0 1 800.1667 0)"/>
    <path style="fill:#000;fill-opacity:1;fill-rule:evenodd;stroke:none;stroke-width:.0625;stroke-linecap:round;stroke-linejoin:round;stroke-miterlimit:4;stroke-opacity:1" d="M410.08309 249.78924c-.37608.57339-.74565.59442-.949.47755-.32389-.18617-.01986-.66664-.09618-.64389-.25577.17264-.54991.23448-.64489.10243-.09497-.13206-.08696-.49134.33257-.86124-.05655.50939.17501.61604.62861.35934-.08579.49016.14584.74746.72889.56581z" transform="matrix(-1 0 0 1 800.1667 0)"/>
    <path style="fill:#000;fill-opacity:1;fill-rule:evenodd;stroke:none;stroke-width:.125;stroke-linecap:round;stroke-linejoin:round;stroke-miterlimit:4;stroke-opacity:1" d="M414.98348 246.47072c.58009.07662 1.0777.89884 1.25282 1.21625-.3393-.22255-.85586-.78912-1.43222-.5776l.1794-.63865z" transform="matrix(-1 0 0 1 800.1667 0)"/>
    <path style="fill:#000;fill-opacity:1;fill-rule:evenodd;stroke:none;stroke-width:.1;stroke-linecap:round;stroke-linejoin:round;stroke-miterlimit:4;stroke-opacity:1" d="m416.80035 246.50315-.53713.28917.81946.51548-.28233-.80465z" transform="matrix(-1 0 0 1 800.1667 0)"/>
    <path style="fill:#000;fill-opacity:1;fill-rule:evenodd;stroke:none;stroke-width:.0625;stroke-linecap:round;stroke-linejoin:round;stroke-miterlimit:4;stroke-opacity:1" d="M409.49716 251.6691c-.37608.57339-.74565.59442-.949.47755-.32389-.18617-.23349-.78666.22011-1.04336-.08579.49016.14584.74746.72889.56581zM412.28034 250.20427c-.37608.57339-.74565.59442-.949.47755-.32389-.18617-.23349-.78666.22011-1.04336-.08579.49016.14584.74746.72889.56581zM412.23151 251.37613c-.37608.57339-.74565.59442-.949.47755-.32389-.18617-.23349-.78666.22011-1.04336-.08579.49016.14584.74746.72889.56581zM411.54792 252.32828c-.37608.57339-.74565.59442-.949.47755-.32389-.18617-.01986-.66664-.09618-.64389-.25577.17264-.54991.23448-.64489.10243-.09497-.13206-.08696-.49134.33257-.86124-.05655.50939.17501.61604.62861.35934-.08579.49016.14584.74746.72889.56581zM410.52254 250.93668c-.37608.57339-.74565.59442-.949.47755-.32389-.18617-.23349-.78666.22011-1.04336-.08579.49016.14584.74746.72889.56581zM410.86433 248.39764c-.37608.57339-.74565.59442-.949.47755-.32389-.18617-.23349-.78666.22011-1.04336-.08579.49016.14584.74746.72889.56581zM415.56632 250.09509c-.08125.68089.18805.93486.4189.97631.36771.06599.44429-.49741.48806-.43087.08462.29675.26993.5334.42761.49348.15768-.03994.38281-.32006.29982-.87318-.28459.42624-.53045.35881-.71237-.12961-.24984.43035-.59272.47817-.92202-.03613zM416.4989 249.0155c-.08124.68089.18806.93486.41891.97631.3677.06599.68503-.45176.50311-.94018-.24984.43035-.59272.47817-.92202-.03613zM416.54773 251.35923c-.08124.68089.18806.93486.41891.97631.3677.06599.68503-.45176.50311-.94018-.24984.43035-.59272.47817-.92202-.03613zM409.83941 256.50087c-.09399.67925-.41887.85667-.65269.83825-.37242-.02937-.54815-.61064-.24837-1.037.1326.47962.45216.61279.90106.19875z" transform="matrix(-1 0 0 1 800.1667 0)"/>
  </g>
</svg>
